<?xml version="1.0" standalone="no"?>
<!DOCTYPE svg PUBLIC "-//W3C//DTD SVG 20010904//EN"
 "http://www.w3.org/TR/2001/REC-SVG-20010904/DTD/svg10.dtd">
<svg version="1.0" xmlns="http://www.w3.org/2000/svg"
 width="386.000000pt" height="130.000000pt" viewBox="0 0 386.000000 130.000000"
 preserveAspectRatio="xMidYMid meet">

<g transform="translate(0.000000,130.000000) scale(0.100000,-0.100000)"
fill="#000000" stroke="none">
<path d="M400 1279 c-77 -15 -187 -76 -249 -138 -184 -185 -189 -461 -13 -652
116 -126 269 -182 434 -159 117 17 175 45 254 124 91 91 115 149 122 289 l4
97 -223 0 -224 0 0 -60 0 -60 159 0 159 0 -7 -42 c-14 -85 -65 -147 -166 -199
-38 -20 -60 -23 -145 -24 -91 0 -105 3 -158 29 -68 35 -140 108 -170 174 -18
38 -22 66 -22 147 0 87 3 107 26 155 32 67 96 133 164 168 39 20 69 27 137 30
99 5 151 -8 221 -57 l44 -30 42 43 43 43 -39 32 c-101 84 -250 118 -393 90z"/>
<path d="M3062 798 l-2 -458 68 2 67 2 -62 3 -63 4 -3 452 -2 452 -3 -457z"/>
<path d="M1203 920 c-113 -45 -185 -156 -186 -285 -1 -179 132 -310 313 -309
126 1 233 68 281 177 35 79 34 192 -4 269 -30 62 -74 106 -140 140 -61 32
-193 36 -264 8z m208 -115 c87 -45 122 -172 74 -265 -21 -41 -80 -88 -120 -96
-153 -28 -265 136 -194 283 43 89 150 124 240 78z"/>
<path d="M2585 927 c-124 -49 -194 -143 -203 -273 -6 -97 15 -158 79 -228 104
-114 267 -134 367 -43 l22 20 0 -54 c0 -64 -30 -132 -72 -163 -16 -11 -49 -21
-81 -24 -68 -5 -119 17 -156 68 l-27 37 -52 -21 c-29 -11 -52 -26 -52 -32 0
-23 63 -96 107 -124 85 -54 194 -61 293 -18 60 25 104 69 132 132 22 50 23 61
26 384 l3 332 -60 0 c-59 0 -61 -1 -61 -26 l0 -25 -32 24 c-18 13 -48 29 -67
36 -43 14 -127 13 -166 -2z m191 -128 c25 -15 44 -39 62 -77 58 -127 -11 -268
-137 -280 -107 -10 -191 76 -191 195 0 148 146 237 266 162z"/>
<path d="M3460 931 c-82 -25 -158 -101 -186 -184 -40 -120 -13 -249 70 -333
120 -119 321 -119 441 1 l38 39 -28 22 c-62 49 -72 51 -108 16 -54 -52 -124
-66 -190 -38 -37 15 -92 75 -80 86 4 4 98 45 208 90 110 45 201 83 202 84 1 1
-8 24 -21 52 -53 114 -142 175 -255 173 -37 0 -77 -4 -91 -8z m156 -117 c30
-14 62 -51 52 -58 -7 -6 -254 -105 -268 -108 -22 -5 -14 48 16 98 26 46 89 84
137 84 16 0 44 -7 63 -16z"/>
</g>
</svg>
